<svg xmlns="http://www.w3.org/2000/svg" viewBox="0 0 320 320" role="img" aria-labelledby="fieldwork-title">
<title id="fieldwork-title">Folded field notes beside a botanical specimen</title>
<defs><linearGradient id="fieldwork-paper" x2="0" y2="1"><stop stop-color="#faf7ed"/><stop offset="1" stop-color="#e8dfc8"/></linearGradient></defs>
<g id="fieldwork-shadow" fill="#142e27" opacity=".18"><ellipse cx="160" cy="272" rx="119" ry="17"/></g>
<g id="fieldwork-notebook" transform="rotate(-8 149 165)">
<rect x="57" y="53" width="183" height="220" rx="12" fill="#244e40"/>
<path d="M76 61h150v197H76z" fill="url(#fieldwork-paper)"/>
<path d="M88 61v197" stroke="#bba880" stroke-width="1.5"/>
<g stroke="#c4bda9" stroke-width="1"><path d="M101 95h101M101 113h101M101 131h101M101 149h101M101 167h101M101 185h101M101 203h101M101 221h70"/></g>
<path d="M215 61v197l-11-12-11 12V61" fill="#b76137"/>
</g>
<g id="fieldwork-sprig" stroke="#416b46" stroke-linecap="round" stroke-linejoin="round">
<path d="M148 255c-9-49 9-92 40-139" fill="none" stroke-width="4"/>
<path d="M152 216c-34-2-44-22-35-38 22 1 36 15 35 38Z" fill="#789462" stroke-width="2"/>
<path d="M158 191c32 5 49-11 46-30-24-5-40 10-46 30Z" fill="#557950" stroke-width="2"/>
<path d="M172 157c-22-8-26-27-16-38 17 5 25 20 16 38Z" fill="#8aa16b" stroke-width="2"/>
<path d="M184 131c25-1 34-18 27-32-20 1-29 15-27 32Z" fill="#628852" stroke-width="2"/>
</g>
<g id="fieldwork-label" transform="rotate(5 241 235)"><rect x="212" y="216" width="54" height="41" rx="3" fill="#ddaa66"/><path d="M223 228h31m-31 7h22m-22 7h27" stroke="#79562e" stroke-width="2"/></g>
</svg>
